SplineFontDB: 3.0
FontName: Chia
FullName: Chia
FamilyName: Chia
Weight: Regular
Copyright: Chia OpenType Layout logic copyright (c) 2013-2017, Daway.Cai,guangxian (caixnet@outlook.com). This layout logic for Chia Font is open source software under the MIT License; see embedded license description for details.
UComments: "2017-12-3: Created with FontForge (http://fontforge.org)"
Version: 001.000
ItalicAngle: 0
UnderlinePosition: -598
UnderlineWidth: 307
Ascent: 1638
Descent: 410
InvalidEm: 0
LayerCount: 2
Layer: 0 0 "Back" 1
Layer: 1 0 "Fore" 0
XUID: [1021 766 1022632015 7977]
FSType: 0
OS2Version: 0
OS2_WeightWidthSlopeOnly: 0
OS2_UseTypoMetrics: 1
CreationTime: 1512318441
ModificationTime: 1512324786
PfmFamily: 17
TTFWeight: 400
TTFWidth: 5
LineGap: 377
VLineGap: 0
OS2TypoAscent: 0
OS2TypoAOffset: 1
OS2TypoDescent: 0
OS2TypoDOffset: 1
OS2TypoLinegap: 377
OS2WinAscent: 0
OS2WinAOffset: 1
OS2WinDescent: 0
OS2WinDOffset: 1
HheadAscent: 0
HheadAOffset: 1
HheadDescent: 0
HheadDOffset: 1
OS2Vendor: 'PfEd'
MarkAttachClasses: 1
DEI: 91125
LangName: 1033
Encoding: ISO8859-1
UnicodeInterp: none
NameList: AGL For New Fonts
DisplaySize: -36
AntiAlias: 1
FitToEm: 0
WinInfo: 0 51 17
BeginPrivate: 0
EndPrivate
TeXData: 1 0 0 759169 379585 253755 995099 -2147484 251658 783286 444596 497025 792723 393216 433062 380633 303038 157286 324010 404750 52429 2506097 1059062 262144
BeginChars: 256 95

StartChar: exclam
Encoding: 33 33 0
Width: 667
Flags: W
HStem: -10 228<276.582 465.418>
VStem: 266 210<-0.2771 208.277 885.821 1367.57> 297 148<342.023 1177.5>
LayerCount: 2
Fore
SplineSet
371 1374 m 0xa0
 417 1374 462 1371 462 1327 c 2
 445 373 l 2
 445 342 404 341 371 341 c 256
 338 341 297 342 297 373 c 2
 280 1327 l 1
 274 1372 324 1374 371 1374 c 0xa0
371 218 m 256
 453 218 476 187 476 104 c 256
 476 21 453 -10 371 -10 c 256
 289 -10 266 21 266 104 c 256xc0
 266 188 288 218 371 218 c 256
EndSplineSet
Validated: 33
EndChar

StartChar: quotedbl
Encoding: 34 34 1
Width: 821
Flags: W
HStem: 870 527<162.675 288.177 516.641 643.255>
VStem: 139 172<1076.41 1395.05> 162 126<870.564 1190.59> 494 171<1076.41 1395.27> 517 126<870.564 1190.59>
LayerCount: 2
Fore
SplineSet
580 1397 m 0x90
 612 1397 671 1396 665 1365 c 1x90
 643 902 l 1
 643 873 611 870 580 870 c 256
 549 870 517 872 517 902 c 1x88
 494 1365 l 1
 494 1397 546 1397 580 1397 c 0x90
225 1397 m 0
 267 1397 311 1396 311 1365 c 1xc0
 288 902 l 1
 288 873 256 870 225 870 c 256
 194 870 162 873 162 902 c 1xa0
 139 1365 l 1xc0
 139 1396 190 1397 225 1397 c 0
EndSplineSet
Validated: 33
EndChar

StartChar: numbersign
Encoding: 35 35 2
Width: 1020
Flags: W
HStem: 364 127<37.0288 186 352 613 778 926.971> 823 127<91.141 245 408 671 834 981.926>
LayerCount: 2
Fore
SplineSet
949 950 m 2
 975 950 983 919 983 886 c 0
 983 856 977 823 949 823 c 2
 818 823 l 1
 778 491 l 1
 894 491 l 2
 921 491 928 460 928 427 c 0
 928 398 922 364 894 364 c 2
 761 364 l 1
 719 22 l 1
 715 4 705 -4 682 -4 c 0
 673 -6 660 -6 645 -6 c 256
 630 -6 617 -6 607 -4 c 0
 587 -4 567 3 571 22 c 1
 613 364 l 1
 335 364 l 1
 293 22 l 1
 290 5 280 -4 257 -4 c 0
 248 -6 235 -6 220 -6 c 0
 204 -6 191 -6 181 -4 c 0
 161 -4 141 3 145 22 c 1
 186 364 l 1
 70 364 l 2
 43 364 36 394 36 427 c 0
 36 456 42 491 70 491 c 2
 204 491 l 1
 245 823 l 1
 124 823 l 2
 98 823 90 854 90 885 c 0
 90 918 97 950 124 950 c 2
 260 950 l 1
 301 1271 l 1
 307 1300 343 1300 379 1300 c 0
 412 1300 450 1303 450 1272 c 1
 408 950 l 1
 686 950 l 1
 725 1271 l 1
 731 1300 767 1300 804 1300 c 0
 832 1300 881 1302 874 1272 c 1
 834 950 l 1
 949 950 l 2
392 823 m 1
 352 491 l 1
 629 491 l 1
 671 823 l 1
 392 823 l 1
EndSplineSet
Validated: 33
EndChar

StartChar: dollar
Encoding: 36 36 3
Width: 1038
Flags: W
HStem: 17 99<195 461 561 838> 1205 102<195 449 549 841>
VStem: 447 100<1307 1521.72> 462 100<-218.587 14 1307 1464.7>
LayerCount: 2
Fore
SplineSet
516 572 m 1xc0
 195 116 l 1
 838 113 l 1
 516 572 l 1xc0
516 746 m 1
 841 1208 l 1
 195 1205 l 1
 516 746 l 1
513 -219 m 0
 485 -219 462 -197 462 -170 c 2xd0
 461 15 l 1
 99 17 l 2
 58 17 35 62 58 96 c 1
 455 659 l 1
 58 1226 l 2
 35 1260 59 1305 99 1305 c 2
 449 1307 l 1
 447 1472 l 2
 447 1499 470 1522 496 1522 c 0
 523 1524 547 1499 547 1473 c 2xe0
 549 1307 l 1
 938 1309 l 2
 978 1309 1000 1263 979 1230 c 1
 577 659 l 1
 975 91 l 1
 997 55 971 12 934 12 c 2
 561 14 l 1
 562 -168 l 2xd0
 562 -196 540 -219 513 -219 c 0
EndSplineSet
Validated: 33
EndChar

StartChar: percent
Encoding: 37 37 4
Width: 1464
Flags: W
HStem: 50 101<974 1131> 338 100<974 1133> 851 101<360 517> 1139 100<360 519>
VStem: 260 100<952 1139> 517 100<953 1139> 874 100<151 338> 1131 100<152 338>
LayerCount: 2
Fore
SplineSet
974 338 m 1
 974 151 l 1
 1131 152 l 1
 1133 338 l 1
 974 338 l 1
874 388 m 2
 874 414 899 438 924 438 c 2
 1183 438 l 2
 1209 438 1233 413 1233 387 c 2
 1231 103 l 2
 1231 77 1207 53 1182 53 c 2
 925 50 l 2
 898 50 874 74 874 100 c 2
 874 388 l 2
360 1139 m 1
 360 952 l 1
 517 953 l 1
 519 1139 l 1
 360 1139 l 1
260 1189 m 2
 260 1215 285 1239 310 1239 c 2
 569 1239 l 2
 595 1239 619 1213 619 1188 c 2
 617 904 l 2
 617 878 593 854 568 854 c 2
 311 851 l 2
 284 851 260 876 260 901 c 2
 260 1189 l 2
1198 1333 m 256
 1225 1333 1264 1329 1256 1302 c 0
 1256 1295 1252 1288 1247 1281 c 2
 346 -8 l 1
 338 -24 317 -34 293 -34 c 0
 284 -36 272 -36 259 -36 c 0
 229 -36 200 -33 200 -6 c 0
 202 1 205 8 210 16 c 2
 1110 1305 l 1
 1121 1324 1138 1327 1164 1332 c 0
 1172 1332 1184 1333 1198 1333 c 256
EndSplineSet
Validated: 33
EndChar

StartChar: ampersand
Encoding: 38 38 5
Width: 1397
Flags: W
HStem: -6 100<295 837> 1237 100<428 784>
LayerCount: 2
Fore
SplineSet
1001 479 m 1
 1063 624 l 2
 1085 677 1180 649 1155 584 c 1
 1071 387 l 1
 1306 77 l 1
 1345 24 1263 -34 1226 17 c 1
 1026 281 l 1
 916 24 l 2
 909 9 891 -6 870 -6 c 2
 212 -6 l 2
 178 -6 148 32 168 67 c 1
 586 862 l 1
 287 1257 l 1
 261 1289 288 1337 327 1337 c 2
 867 1337 l 2
 904 1337 928 1298 911 1264 c 2
 704 871 l 1
 1001 479 l 1
956 373 m 1
 653 774 l 1
 295 94 l 1
 837 94 l 1
 956 373 l 1
638 959 m 1
 784 1237 l 1
 428 1237 l 1
 638 959 l 1
EndSplineSet
Validated: 33
EndChar

StartChar: quotesingle
Encoding: 39 39 6
Width: 452
Flags: W
HStem: 870 527<161.892 290.085>
VStem: 139 173<1076.41 1395.05> 162 128<870.671 1190.59>
LayerCount: 2
Fore
SplineSet
139 1365 m 1xc0
 139 1396 192 1397 226 1397 c 0
 242 1397 256 1396 266 1396 c 0
 287 1393 317 1388 312 1365 c 1xc0
 290 902 l 1
 290 873 257 870 226 870 c 256
 195 870 162 873 162 902 c 1xa0
 139 1365 l 1xc0
EndSplineSet
Validated: 1
EndChar

StartChar: parenleft
Encoding: 40 40 7
Width: 621
Flags: W
VStem: 133 174<142.313 920.35>
LayerCount: 2
Fore
SplineSet
495 1378 m 0
 383 1139 307 865 307 540 c 0
 307 215 385 -60 493 -300 c 0
 496 -308 498 -315 498 -320 c 0
 502 -344 459 -345 431 -345 c 0
 397 -345 366 -344 353 -324 c 0
 228 -87 133 183 133 537 c 256
 133 889 236 1160 354 1400 c 0
 358 1413 378 1414 394 1418 c 0
 403 1418 415 1419 430 1419 c 0
 463 1419 513 1414 495 1378 c 0
EndSplineSet
Validated: 33
EndChar

StartChar: parenright
Encoding: 41 41 8
Width: 621
Flags: W
VStem: 314 173<142.173 923.982>
LayerCount: 2
Fore
SplineSet
487 537 m 0
 487 184 393 -88 268 -324 c 0
 255 -343 223 -345 190 -345 c 0
 160 -345 122 -346 122 -320 c 0
 123 -315 125 -308 128 -300 c 0
 237 -60 314 214 314 540 c 0
 314 864 238 1140 126 1378 c 0
 109 1413 155 1419 191 1419 c 0
 205 1419 217 1418 226 1418 c 0
 242 1414 263 1413 267 1400 c 0
 389 1157 487 876 487 537 c 0
EndSplineSet
Validated: 33
EndChar

StartChar: asterisk
Encoding: 42 42 9
Width: 1020
Flags: W
VStem: 431 150<668.892 833.144 1250.37 1415.09>
LayerCount: 2
Fore
SplineSet
841 935 m 2
 884 916 808 816 792 806 c 0
 783 800 774 800 766 806 c 2
 553 961 l 1
 581 699 l 1
 587 670 545 668 506 668 c 256
 467 668 425 670 431 699 c 1
 459 961 l 1
 247 806 l 2
 219 785 197 828 182 855 c 0
 167 881 159 900 158 912 c 0
 158 923 163 931 172 935 c 2
 413 1042 l 1
 172 1148 l 2
 163 1153 158 1161 158 1172 c 0
 160 1196 204 1267 220 1277 c 0
 230 1283 239 1283 247 1277 c 2
 459 1123 l 1
 431 1384 l 1
 425 1414 466 1416 506 1416 c 256
 546 1416 587 1414 581 1384 c 1
 553 1123 l 1
 766 1277 l 2
 793 1297 815 1255 830 1228 c 0
 848 1197 869 1164 841 1148 c 1
 600 1042 l 1
 841 935 l 2
EndSplineSet
Validated: 33
EndChar

StartChar: plus
Encoding: 43 43 10
Width: 1020
Flags: W
HStem: 504 143<71.8688 436 584 948.153>
VStem: 436 148<109.209 504 647 1044.71>
LayerCount: 2
Fore
SplineSet
913 647 m 2
 944 647 950 609 950 576 c 0
 950 542 943 504 912 504 c 2
 584 504 l 1
 584 140 l 2
 584 110 543 108 510 108 c 0
 478 108 436 110 436 140 c 2
 436 504 l 1
 108 504 l 2
 76 504 70 542 70 576 c 0
 70 608 77 647 107 647 c 2
 436 647 l 1
 436 1011 l 2
 436 1043 476 1046 510 1046 c 0
 544 1046 584 1043 584 1011 c 2
 584 647 l 1
 913 647 l 2
EndSplineSet
Validated: 1
EndChar

StartChar: comma
Encoding: 44 44 11
Width: 511
Flags: W
HStem: -288 512
VStem: 179 192<15 218.708>
LayerCount: 2
Fore
SplineSet
276 224 m 0
 343 224 371 210 371 143 c 0
 371 51 347 -1 311 -56 c 2
 174 -262 l 2
 166 -275 146 -288 124 -288 c 0
 116 -290 106 -290 93 -290 c 0
 82 -290 72 -290 64 -288 c 0
 51 -288 44 -283 42 -274 c 0
 42 -270 43 -265 46 -260 c 2
 179 15 l 1
 179 143 l 2
 179 211 209 224 276 224 c 0
EndSplineSet
Validated: 1
EndChar

StartChar: hyphen
Encoding: 45 45 12
Width: 627
Flags: W
HStem: 436 137<70.0943 556.919>
VStem: 69 489<436 573>
LayerCount: 2
Fore
SplineSet
523 573 m 2
 554 573 558 538 558 505 c 0
 558 467 553 436 523 436 c 2
 105 436 l 2
 74 436 69 467 69 505 c 256
 69 543 74 573 105 573 c 2
 523 573 l 2
EndSplineSet
Validated: 1
EndChar

StartChar: period
Encoding: 46 46 13
Width: 517
Flags: W
HStem: -9 233<161.52 355.729>
VStem: 151 215<0.922096 213.972>
LayerCount: 2
Fore
SplineSet
260 224 m 0
 345 224 366 197 366 109 c 0
 366 19 345 -9 257 -9 c 0
 172 -9 151 18 151 106 c 0
 151 197 173 224 260 224 c 0
EndSplineSet
Validated: 1
EndChar

StartChar: slash
Encoding: 47 47 14
Width: 791
Flags: W
LayerCount: 2
Fore
SplineSet
168 -241 m 1
 156 -276 128 -281 81 -281 c 0
 37 -281 -13 -274 7 -229 c 1
 612 1430 l 2
 620 1454 634 1468 663 1468 c 0
 673 1470 685 1470 699 1470 c 0
 743 1470 788 1464 773 1418 c 1
 168 -241 l 1
EndSplineSet
Validated: 33
EndChar

StartChar: zero
Encoding: 48 48 15
Width: 1038
Flags: W
HStem: -2 146<330 755> 1170 144<284 707>
VStem: 138 146<365 1170> 755 145<144 951>
LayerCount: 2
Fore
SplineSet
284 365 m 1
 707 1170 l 1
 284 1170 l 1
 284 365 l 1
138 1242 m 2
 138 1279 172 1314 210 1314 c 0
 416 1314 623 1314 829 1314 c 0
 846 1314 860 1308 873 1297 c 1
 874 1297 l 1
 891 1282 900 1264 900 1242 c 2
 900 70 l 2
 900 35 864 -2 828 -2 c 2
 210 -2 l 2
 175 -2 138 34 138 70 c 2
 138 1242 l 2
755 951 m 1
 330 144 l 1
 755 144 l 1
 755 951 l 1
EndSplineSet
Validated: 1
EndChar

StartChar: one
Encoding: 49 49 16
Width: 929
Flags: W
VStem: 187 569
LayerCount: 2
Fore
SplineSet
187 98 m 2
 616 1264 l 2
 627 1296 667 1325 712 1309 c 0
 743 1298 773 1259 756 1213 c 2
 327 46 l 2
 294 -43 152 2 187 98 c 2
EndSplineSet
Validated: 33
EndChar

StartChar: two
Encoding: 50 50 17
Width: 1038
Flags: W
HStem: 0 144<144.906 707> 1170 144<330 893.094>
LayerCount: 2
Fore
SplineSet
211 0 m 2
 173 0 139 33 139 72 c 0
 139 111 173 144 211 144 c 2
 707 144 l 1
 147 1208 l 1
 122 1260 158 1314 211 1314 c 2
 827 1314 l 2
 865 1314 899 1281 899 1242 c 0
 899 1203 865 1170 827 1170 c 2
 330 1170 l 1
 890 106 l 1
 903 76 896 43 879 23 c 0
 867 11 849 0 826 0 c 2
 211 0 l 2
EndSplineSet
Validated: 33
EndChar

StartChar: three
Encoding: 51 51 18
Width: 1038
Flags: W
HStem: -0 143<284 893.234> 1172 144<284 892.521>
VStem: 140 144<147 1172>
LayerCount: 2
Fore
SplineSet
827 143 m 2
 867 143 899 111 899 71 c 0
 899 33 866 -2 827 -0 c 1
 211 4 l 2
 172 4 140 37 140 76 c 2
 140 1244 l 2
 140 1282 175 1318 212 1316 c 1
 827 1314 l 2
 867 1314 899 1281 899 1242 c 0
 899 1202 866 1170 827 1170 c 2
 284 1172 l 1
 284 147 l 1
 827 143 l 2
EndSplineSet
Validated: 33
EndChar

StartChar: four
Encoding: 52 52 19
Width: 1038
Flags: W
HStem: -0 144<331 827>
LayerCount: 2
Fore
SplineSet
827 -0 m 1
 212 -0 l 2
 162 0 119 53 148 105 c 1
 763 1275 l 2
 778 1304 820 1327 860 1306 c 0
 889 1292 912 1249 891 1209 c 2
 331 144 l 1
 827 144 l 1
 827 -0 l 1
EndSplineSet
Validated: 33
EndChar

StartChar: five
Encoding: 53 53 20
Width: 1038
Flags: W
HStem: -1 144<330 755>
VStem: 755 144<143 951>
LayerCount: 2
Fore
SplineSet
211 -1 m 2
 160 -1 121 52 147 104 c 1
 763 1275 l 1
 780 1313 839 1329 875 1295 c 0
 891 1280 898 1263 898 1242 c 2
 899 71 l 1
 901 35 865 -1 828 -1 c 2
 211 -1 l 2
330 143 m 1
 755 143 l 1
 755 951 l 1
 330 143 l 1
EndSplineSet
Validated: 33
EndChar

StartChar: six
Encoding: 54 54 21
Width: 1139
Flags: W
HStem: -0 144<284 705> 1295 20G<806 845>
VStem: 140 144<144 948> 752 144<365 1308.37>
LayerCount: 2
Fore
SplineSet
705 145 m 1
 564 412 424 680 284 948 c 1
 284 144 l 1
 705 145 l 1
140 1240 m 2
 140 1312 245 1340 275 1273 c 1
 752 365 l 1
 754 1243 l 2
 754 1283 786 1315 826 1315 c 0
 864 1315 899 1281 897 1243 c 1
 896 144 l 1
 896 74 l 2
 896 33 866 2 824 2 c 2
 212 -0 l 1
 174 -2 140 35 140 72 c 2
 140 1240 l 2
EndSplineSet
Validated: 33
EndChar

StartChar: seven
Encoding: 55 55 22
Width: 1038
Flags: W
HStem: 1171 144<284 892.676>
VStem: 140 144<4.76562 1171>
LayerCount: 2
Fore
SplineSet
284 71 m 2
 284 32 250 -1 212 -1 c 0
 172 -1 140 31 140 71 c 2
 140 1244 l 2
 140 1281 175 1317 212 1315 c 1
 827 1314 l 2
 867 1314 899 1281 899 1242 c 0
 899 1202 866 1170 827 1170 c 2
 284 1171 l 1
 284 71 l 2
EndSplineSet
Validated: 33
EndChar

StartChar: eight
Encoding: 56 56 23
Width: 1038
Flags: W
VStem: 140 144<365 948>
LayerCount: 2
Fore
SplineSet
437 656 m 1
 284 948 l 1
 284 365 l 1
 437 656 l 1
140 1240 m 2
 140 1312 245 1340 275 1273 c 1
 519 810 l 1
 763 1275 l 2
 777 1304 820 1327 860 1306 c 0
 889 1291 912 1249 891 1209 c 2
 601 657 l 1
 890 106 l 1
 918 51 871 -17 805 4 c 0
 786 10 772 21 763 39 c 2
 519 503 l 1
 275 40 l 1
 252 -8 174 -12 149 39 c 0
 143 50 140 61 140 73 c 2
 140 1240 l 2
EndSplineSet
Validated: 33
EndChar

StartChar: nine
Encoding: 57 57 24
Width: 1038
Flags: W
HStem: 1170 144<284 707>
VStem: 138 146<365 1170> 754 146<5.94542 948>
LayerCount: 2
Fore
SplineSet
707 1170 m 1
 284 1170 l 1
 284 365 l 1
 707 1170 l 1
138 1256 m 1
 151 1282 172 1314 211 1314 c 2
 811 1314 l 1
 815 1315 819 1316 822 1316 c 0
 864 1318 900 1284 900 1244 c 2
 900 71 l 2
 900 35 866 -1 828 -1 c 2
 826 -1 l 2
 791 -1 754 34 754 71 c 2
 754 948 l 1
 274 35 l 2
 256 -2 198 -18 162 16 c 0
 146 31 138 48 138 69 c 2
 138 1256 l 1
EndSplineSet
Validated: 33
EndChar

StartChar: colon
Encoding: 58 58 25
Width: 548
Flags: W
HStem: -9 231<198.338 386.44> 686 231<197.165 385.926>
VStem: 187 210<0.954834 211.612 695.961 906.984>
LayerCount: 2
Fore
SplineSet
292 917 m 0
 376 917 397 885 397 800 c 0
 397 718 374 686 292 686 c 0
 237 686 198 699 192 746 c 0
 188 761 187 779 187 800 c 0
 187 885 207 917 292 917 c 0
292 -9 m 0
 208 -9 187 23 187 106 c 256
 187 188 209 222 292 222 c 0
 346 222 385 209 392 162 c 0
 396 146 397 128 397 106 c 256
 397 23 375 -9 292 -9 c 0
EndSplineSet
Validated: 1
EndChar

StartChar: semicolon
Encoding: 59 59 26
Width: 548
Flags: W
HStem: -289 513<123 303> 686 231<197.165 385.926>
VStem: 187 210<695.961 906.984> 207 190<15 218.708>
LayerCount: 2
Fore
SplineSet
292 917 m 0xe0
 376 917 397 885 397 800 c 0
 397 718 374 686 292 686 c 0
 237 686 198 699 192 746 c 0
 188 761 187 779 187 800 c 0
 187 885 207 917 292 917 c 0xe0
303 224 m 0
 369 224 397 210 397 143 c 0
 397 51 374 -0 338 -56 c 2
 202 -260 l 1
 188 -283 160 -289 123 -289 c 0
 112 -289 102 -288 94 -288 c 0
 82 -284 75 -283 72 -272 c 0
 72 -269 73 -264 76 -258 c 2
 207 15 l 1
 207 143 l 2xd0
 207 210 237 224 303 224 c 0
EndSplineSet
Validated: 1
EndChar

StartChar: less
Encoding: 60 60 27
Width: 1020
Flags: W
LayerCount: 2
Fore
SplineSet
919 162 m 0
 919 137 920 89 898 94 c 0
 892 95 886 97 879 101 c 2
 91 499 l 1
 72 507 69 544 69 578 c 0
 69 589 70 599 70 608 c 0
 74 626 78 651 94 655 c 1
 879 1051 l 1
 919 1070 919 1034 919 991 c 0
 919 972 918 956 918 945 c 0
 912 913 908 902 884 890 c 2
 240 575 l 1
 880 265 l 1
 906 250 912 244 918 208 c 0
 918 197 919 181 919 162 c 0
EndSplineSet
Validated: 33
EndChar

StartChar: equal
Encoding: 61 61 28
Width: 1020
Flags: W
HStem: 312 141<95.5625 923.422> 700 141<95.7031 923.2>
LayerCount: 2
Fore
SplineSet
887 841 m 2
 918 841 925 808 925 771 c 0
 925 732 916 700 887 700 c 2
 131 700 l 2
 102 700 94 733 94 771 c 0
 94 807 101 841 131 841 c 2
 887 841 l 2
887 453 m 2
 918 453 925 420 925 382 c 0
 925 343 917 312 887 312 c 2
 131 312 l 2
 102 312 94 344 94 382 c 0
 94 419 101 453 131 453 c 2
 887 453 l 2
EndSplineSet
Validated: 1
EndChar

StartChar: greater
Encoding: 62 62 29
Width: 1020
Flags: W
LayerCount: 2
Fore
SplineSet
122 94 m 0
 100 94 101 135 101 160 c 0
 101 212 98 244 135 260 c 1
 780 577 l 1
 139 886 l 1
 101 903 101 932 101 989 c 0
 101 1029 100 1072 141 1049 c 1
 929 652 l 1
 948 644 952 607 952 574 c 0
 952 540 948 507 926 496 c 2
 141 100 l 2
 134 97 127 95 122 94 c 0
EndSplineSet
Validated: 33
EndChar

StartChar: question
Encoding: 63 63 30
Width: 949
Flags: W
HStem: -10 228<279.927 470.378> 1237 100<202 737>
VStem: 271 210<-0.038662 209.079> 774 100<525 1088>
LayerCount: 2
Fore
SplineSet
818 1337 m 2
 848 1337 874 1309 874 1280 c 2
 874 383 l 2
 874 337 813 315 785 352 c 1
 551 643 l 1
 406 353 l 1
 389 316 327 317 314 359 c 0
 309 373 310 385 316 397 c 2
 482 729 l 1
 59 1256 l 1
 32 1291 60 1337 98 1337 c 2
 818 1337 l 2
615 741 m 1
 774 525 l 1
 774 1088 l 1
 615 741 l 1
532 827 m 1
 600 964 669 1100 737 1237 c 1
 202 1237 l 1
 532 827 l 1
481 104 m 256
 481 22 459 -10 376 -10 c 256
 321 -10 282 3 276 50 c 0
 272 64 271 82 271 104 c 256
 271 160 279 202 324 212 c 0
 338 216 355 218 376 218 c 256
 429 218 469 206 476 160 c 0
 480 144 481 126 481 104 c 256
EndSplineSet
Validated: 33
EndChar

StartChar: at
Encoding: 64 64 31
Width: 1831
Flags: W
HStem: -100 100<340 1064.57> 201 125<735 1234> 1201 100<340 1346>
VStem: 240 100<0 1201> 616 119<326 865> 1345 100<383 1201>
LayerCount: 2
Fore
SplineSet
735 865 m 1
 735 326 l 1
 1234 324 l 1
 735 865 l 1
675 201 m 2
 644 201 616 230 616 264 c 2
 616 1019 l 2
 616 1054 642 1079 674 1081 c 0
 692 1081 707 1075 718 1062 c 2
 1345 383 l 1
 1346 1201 l 1
 340 1201 l 1
 340 0 l 1
 1015 0 l 2
 1041 0 1065 -24 1065 -50 c 0
 1065 -76 1041 -100 1015 -100 c 2
 290 -100 l 2
 264 -100 240 -76 240 -50 c 2
 240 1251 l 2
 240 1276 265 1301 290 1301 c 2
 1396 1301 l 2
 1421 1301 1446 1277 1446 1251 c 2
 1445 249 l 2
 1445 225 1416 193 1395 199 c 0
 1392 200 1389 200 1386 200 c 0
 1380 199 1376 199 1375 199 c 2
 675 201 l 2
EndSplineSet
Validated: 33
EndChar

StartChar: A
Encoding: 65 65 32
Width: 1175
Flags: W
HStem: -7 150<332 875> 1318 40<149 196> 1462 39<149 196>
VStem: 81 40<1387 1433> 182 150<143 914> 224 40<1386 1434>
LayerCount: 2
Fore
SplineSet
257 -7 m 2xf8
 219 -7 182 28 182 68 c 2
 185 1151 l 2
 185 1224 281 1250 321 1194 c 2
 1080 109 l 1
 1118 56 1072 -9 1019 -9 c 2
 257 -7 l 2xf8
334 914 m 1
 332 143 l 1
 875 141 l 1
 334 914 l 1
224 1386 m 1xf4
 224 1434 l 1
 201 1410 l 1
 224 1386 l 1xf4
149 1358 m 1
 196 1358 l 1
 172 1381 l 1
 149 1358 l 1
196 1462 m 1
 149 1462 l 1
 172 1438 l 1
 196 1462 l 1
244 1503 m 2
 256 1503 264 1492 264 1483 c 2
 264 1338 l 2
 264 1325 257 1318 244 1318 c 2
 101 1318 l 2
 88 1318 81 1325 81 1338 c 2
 81 1481 l 2
 81 1494 87 1501 102 1501 c 2
 244 1503 l 2
121 1387 m 1
 144 1410 l 1
 121 1433 l 1
 121 1387 l 1
EndSplineSet
Validated: 33
EndChar

StartChar: B
Encoding: 66 66 33
Width: 1269
Flags: W
HStem: 2 149<402 873> 1076 150<401 873> 1318 40<150 197> 1462 39<150 197>
VStem: 82 40<1387 1433> 182 150<312 915> 225 40<1386 1434>
LayerCount: 2
Fore
SplineSet
1018 1226 m 2xfc
 1076 1226 1115 1156 1079 1107 c 2
 729 613 l 1
 1080 116 l 1
 1118 67 1076 -2 1019 -2 c 2
 257 2 l 1
 252 2 l 1
 213 4 182 38 182 77 c 2
 181 1151 l 2
 181 1191 217 1226 256 1226 c 2
 1018 1226 l 2xfc
637 483 m 1
 402 151 l 1
 873 149 l 1
 637 483 l 1
401 1076 m 1
 637 743 l 1
 873 1076 l 1
 401 1076 l 1
545 613 m 1
 331 915 l 1
 332 312 l 1
 545 613 l 1
225 1386 m 1xfa
 225 1434 l 1
 202 1410 l 1
 225 1386 l 1xfa
150 1358 m 1
 197 1358 l 1
 173 1381 l 1
 150 1358 l 1
197 1462 m 1
 150 1462 l 1
 173 1438 l 1
 197 1462 l 1
245 1503 m 2
 257 1503 265 1492 265 1483 c 2
 265 1338 l 2
 265 1325 258 1318 245 1318 c 2
 102 1318 l 2
 89 1318 82 1325 82 1338 c 2
 82 1481 l 2
 82 1494 88 1501 103 1501 c 2
 245 1503 l 2
122 1387 m 1
 145 1410 l 1
 122 1433 l 1
 122 1387 l 1
EndSplineSet
Validated: 33
EndChar

StartChar: C
Encoding: 67 67 34
Width: 1194
Flags: W
HStem: -4 150<189.445 858> 1076 150<190.468 861> 1318 40<146 193> 1462 39<146 193>
VStem: 78 40<1387 1433> 221 40<1386 1434> 858 150<151 1076>
LayerCount: 2
Fore
SplineSet
258 1076 m 2
 217 1076 183 1110 183 1151 c 0
 183 1191 219 1226 258 1226 c 2
 936 1226 l 2
 975 1226 1011 1189 1011 1150 c 2
 1008 77 l 2
 1008 37 972 2 934 2 c 2
 258 -4 l 2
 218 -4 182 30 182 70 c 0
 182 111 216 146 256 146 c 2
 858 151 l 1
 861 1076 l 1
 258 1076 l 2
221 1386 m 1
 221 1434 l 1
 198 1410 l 1
 221 1386 l 1
146 1358 m 1
 193 1358 l 1
 169 1381 l 1
 146 1358 l 1
193 1462 m 1
 146 1462 l 1
 169 1438 l 1
 193 1462 l 1
241 1503 m 2
 253 1503 261 1492 261 1483 c 2
 261 1338 l 2
 261 1325 254 1318 241 1318 c 2
 98 1318 l 2
 85 1318 78 1325 78 1338 c 2
 78 1481 l 2
 78 1494 84 1501 99 1501 c 2
 241 1503 l 2
118 1387 m 1
 141 1410 l 1
 118 1433 l 1
 118 1387 l 1
EndSplineSet
Validated: 1
EndChar

StartChar: D
Encoding: 68 68 35
Width: 1271
Flags: W
HStem: 1076 150<333 876> 1318 40<151 198> 1462 39<151 198>
VStem: 83 40<1387 1433> 182 150<316 1076> 226 40<1386 1434>
LayerCount: 2
Fore
SplineSet
183 1151 m 2xf8
 183 1190 218 1226 258 1226 c 2
 1022 1226 l 2
 1080 1226 1121 1156 1083 1107 c 1
 318 38 l 1
 275 -20 182 13 182 82 c 2
 183 1151 l 2xf8
333 1076 m 1
 332 316 l 1
 876 1076 l 1
 333 1076 l 1
226 1386 m 1xf4
 226 1434 l 1
 203 1410 l 1
 226 1386 l 1xf4
151 1358 m 1
 198 1358 l 1
 174 1381 l 1
 151 1358 l 1
198 1462 m 1
 151 1462 l 1
 174 1438 l 1
 198 1462 l 1
246 1503 m 2
 258 1503 266 1492 266 1483 c 2
 266 1338 l 2
 266 1325 259 1318 246 1318 c 2
 103 1318 l 2
 90 1318 83 1325 83 1338 c 2
 83 1481 l 2
 83 1494 89 1501 104 1501 c 2
 246 1503 l 2
123 1387 m 1
 146 1410 l 1
 123 1433 l 1
 123 1387 l 1
EndSplineSet
Validated: 33
EndChar

StartChar: E
Encoding: 69 69 36
Width: 1268
Flags: W
HStem: -8 151<402 944> 1076 150<189.468 871> 1318 40<153 200> 1462 39<153 200>
VStem: 85 40<1387 1433> 228 40<1386 1434> 941 149<146 914>
LayerCount: 2
Fore
SplineSet
257 -8 m 2
 200 -8 160 61 196 110 c 1
 871 1076 l 1
 257 1076 l 2
 216 1076 182 1110 182 1151 c 0
 182 1191 218 1226 257 1226 c 2
 1015 1226 l 2
 1058 1226 1088 1191 1090 1152 c 1
 1090 1121 l 1
 1094 71 l 2
 1094 30 1060 -4 1019 -4 c 2
 257 -8 l 2
941 914 m 1
 402 143 l 1
 944 146 l 1
 941 914 l 1
228 1386 m 1
 228 1434 l 1
 205 1410 l 1
 228 1386 l 1
153 1358 m 1
 200 1358 l 1
 176 1381 l 1
 153 1358 l 1
200 1462 m 1
 153 1462 l 1
 176 1438 l 1
 200 1462 l 1
248 1503 m 2
 260 1503 268 1492 268 1483 c 2
 268 1338 l 2
 268 1325 261 1318 248 1318 c 2
 105 1318 l 2
 92 1318 85 1325 85 1338 c 2
 85 1481 l 2
 85 1494 91 1501 106 1501 c 2
 248 1503 l 2
125 1387 m 1
 148 1410 l 1
 125 1433 l 1
 125 1387 l 1
EndSplineSet
Validated: 33
EndChar

StartChar: F
Encoding: 70 70 37
Width: 1270
Flags: W
HStem: -3 150<402 944> 1318 40<155 202> 1462 39<155 202>
VStem: 87 40<1387 1433> 182 150<308 1218.34> 230 40<1386 1434> 944 150<147 915>
LayerCount: 2
Fore
SplineSet
127 1387 m 1xf2
 150 1410 l 1
 127 1433 l 1
 127 1387 l 1xf2
250 1503 m 2
 262 1503 270 1492 270 1483 c 2
 270 1338 l 2xf6
 270 1325 263 1318 250 1318 c 2
 107 1318 l 2
 94 1318 87 1325 87 1338 c 2
 87 1481 l 2
 87 1494 93 1501 108 1501 c 2
 250 1503 l 2
202 1462 m 1
 155 1462 l 1
 178 1438 l 1
 202 1462 l 1
155 1358 m 1
 202 1358 l 1
 178 1381 l 1
 155 1358 l 1
230 1386 m 1
 230 1434 l 1
 207 1410 l 1
 230 1386 l 1
402 147 m 1
 944 147 l 1
 942 915 l 1
 402 147 l 1
255 1226 m 0
 296 1226 330 1191 330 1151 c 2
 332 308 l 1
 956 1194 l 2
 981 1230 1032 1235 1068 1206 c 0
 1084 1191 1092 1172 1092 1151 c 2
 1094 72 l 2
 1094 33 1058 -3 1019 -3 c 2
 257 -3 l 2
 215 -3 184 31 182 69 c 1
 182 101 l 1xfa
 180 1150 l 2
 180 1191 214 1226 255 1226 c 0
EndSplineSet
Validated: 33
EndChar

StartChar: G
Encoding: 71 71 38
Width: 1163
Flags: W
HStem: 1076 150<186.468 853> 1318 40<155 202> 1462 39<155 202>
VStem: 87 40<1387 1433> 230 40<1386 1434> 858 150<4.8462 1076>
LayerCount: 2
Fore
SplineSet
254 1076 m 2
 213 1076 179 1110 179 1151 c 0
 179 1191 215 1226 254 1226 c 2
 928 1226 l 2
 968 1226 1003 1190 1003 1151 c 2
 1008 73 l 2
 1008 33 974 -2 933 -2 c 0
 893 -2 858 32 858 73 c 2
 853 1076 l 1
 254 1076 l 2
230 1386 m 1
 230 1434 l 1
 207 1410 l 1
 230 1386 l 1
155 1358 m 1
 202 1358 l 1
 178 1381 l 1
 155 1358 l 1
202 1462 m 1
 155 1462 l 1
 178 1438 l 1
 202 1462 l 1
250 1503 m 2
 262 1503 270 1492 270 1483 c 2
 270 1338 l 2
 270 1325 263 1318 250 1318 c 2
 107 1318 l 2
 94 1318 87 1325 87 1338 c 2
 87 1481 l 2
 87 1494 93 1501 108 1501 c 2
 250 1503 l 2
127 1387 m 1
 150 1410 l 1
 127 1433 l 1
 127 1387 l 1
EndSplineSet
Validated: 1
EndChar

StartChar: H
Encoding: 72 72 39
Width: 1276
Flags: W
HStem: 1318 40<154 201> 1462 39<154 201>
VStem: 86 40<1387 1433> 182 150<305 915> 229 40<1386 1434> 945 149<310 914>
LayerCount: 2
Fore
SplineSet
229 1386 m 1xec
 229 1434 l 1
 206 1410 l 1
 229 1386 l 1xec
154 1358 m 1
 201 1358 l 1
 177 1381 l 1
 154 1358 l 1
201 1462 m 1
 154 1462 l 1
 177 1438 l 1
 201 1462 l 1
249 1503 m 2
 261 1503 269 1492 269 1483 c 2
 269 1338 l 2
 269 1325 262 1318 249 1318 c 2
 106 1318 l 2
 93 1318 86 1325 86 1338 c 2
 86 1481 l 2
 86 1494 93 1501 107 1501 c 2
 249 1503 l 2
126 1387 m 1
 149 1410 l 1
 126 1433 l 1
 126 1387 l 1
733 610 m 1
 945 310 l 1
 948 914 l 1
 733 610 l 1
1094 75 m 2
 1094 3 999 -25 958 32 c 2
 641 480 l 1
 318 26 l 1
 294 -10 240 -18 206 14 c 0
 190 29 182 48 182 69 c 2xf4
 184 1151 l 2
 184 1223 281 1250 320 1194 c 2
 641 740 l 1
 963 1194 l 1
 1003 1254 1099 1218 1099 1150 c 2
 1094 75 l 2
549 610 m 1
 334 915 l 1
 332 305 l 1
 549 610 l 1
EndSplineSet
Validated: 33
EndChar

StartChar: I
Encoding: 73 73 40
Width: 1107
Flags: W
HStem: 1318 40<143 190> 1462 39<143 190>
VStem: 75 40<1387 1433> 218 40<1386 1434>
LayerCount: 2
Fore
SplineSet
192 1114 m 2
 143 1202 276 1270 322 1187 c 2
 926 111 l 2
 958 54 908 -17 841 3 c 0
 821 8 806 20 796 38 c 2
 192 1114 l 2
218 1386 m 1
 218 1434 l 1
 195 1410 l 1
 218 1386 l 1
143 1358 m 1
 190 1358 l 1
 166 1381 l 1
 143 1358 l 1
190 1462 m 1
 143 1462 l 1
 166 1438 l 1
 190 1462 l 1
238 1503 m 2
 250 1503 258 1492 258 1483 c 2
 258 1338 l 2
 258 1325 251 1318 238 1318 c 2
 95 1318 l 2
 82 1318 75 1325 75 1338 c 2
 75 1481 l 2
 75 1494 81 1501 96 1501 c 2
 238 1503 l 2
115 1387 m 1
 138 1410 l 1
 115 1433 l 1
 115 1387 l 1
EndSplineSet
Validated: 33
EndChar

StartChar: J
Encoding: 74 74 41
Width: 1110
Flags: W
HStem: -4 150<188.691 797> 1318 40<149 196> 1462 39<149 196>
VStem: 81 40<1387 1433> 224 40<1386 1434>
LayerCount: 2
Fore
SplineSet
182 71 m 0
 182 112 216 146 257 146 c 2
 797 147 l 1
 191 1111 l 2
 155 1167 205 1239 271 1223 c 0
 291 1219 307 1208 317 1191 c 2
 996 112 l 1
 1030 61 989 -3 933 -3 c 2
 257 -4 l 2
 216 -4 182 30 182 71 c 0
224 1386 m 1
 224 1434 l 1
 201 1410 l 1
 224 1386 l 1
149 1358 m 1
 196 1358 l 1
 172 1381 l 1
 149 1358 l 1
196 1462 m 1
 149 1462 l 1
 172 1438 l 1
 196 1462 l 1
244 1503 m 2
 256 1503 264 1492 264 1483 c 2
 264 1338 l 2
 264 1325 257 1318 244 1318 c 2
 101 1318 l 2
 88 1318 81 1325 81 1338 c 2
 81 1481 l 2
 81 1494 87 1501 102 1501 c 2
 244 1503 l 2
121 1387 m 1
 144 1410 l 1
 121 1433 l 1
 121 1387 l 1
EndSplineSet
Validated: 33
EndChar

StartChar: K
Encoding: 75 75 42
Width: 1064
Flags: W
HStem: 1076 150<187.468 801> 1318 40<152 199> 1462 39<152 199>
VStem: 84 40<1387 1433> 227 40<1386 1434>
LayerCount: 2
Fore
SplineSet
227 1386 m 1
 227 1434 l 1
 204 1410 l 1
 227 1386 l 1
152 1358 m 1
 199 1358 l 1
 175 1381 l 1
 152 1358 l 1
199 1462 m 1
 152 1462 l 1
 175 1438 l 1
 199 1462 l 1
247 1503 m 2
 259 1503 267 1492 267 1483 c 2
 267 1338 l 2
 267 1325 260 1318 247 1318 c 2
 104 1318 l 2
 91 1318 84 1325 84 1338 c 2
 84 1481 l 2
 84 1494 91 1501 105 1501 c 2
 247 1503 l 2
124 1387 m 1
 147 1410 l 1
 124 1433 l 1
 124 1387 l 1
255 1076 m 2
 214 1076 180 1110 180 1151 c 0
 180 1191 216 1226 255 1226 c 2
 937 1226 l 2
 992 1226 1034 1159 1000 1111 c 1
 320 34 l 2
 285 -20 199 -5 184 58 c 0
 179 78 183 97 194 114 c 2
 801 1076 l 1
 255 1076 l 2
EndSplineSet
Validated: 33
EndChar

StartChar: L
Encoding: 76 76 43
Width: 939
Flags: W
HStem: -1 150<332 854.154> 1318 40<145 192> 1462 39<145 192>
VStem: 77 40<1387 1433> 182 150<149 1220.31> 220 40<1386 1434>
LayerCount: 2
Fore
SplineSet
220 1386 m 1xf4
 220 1434 l 1
 197 1410 l 1
 220 1386 l 1xf4
145 1358 m 1
 192 1358 l 1
 168 1381 l 1
 145 1358 l 1
192 1462 m 1
 145 1462 l 1
 168 1438 l 1
 192 1462 l 1
240 1503 m 2
 252 1503 260 1492 260 1483 c 2
 260 1338 l 2
 260 1325 253 1318 240 1318 c 2
 97 1318 l 2
 84 1318 77 1325 77 1338 c 2
 77 1481 l 2
 77 1494 84 1501 98 1501 c 2
 240 1503 l 2
117 1387 m 1
 140 1410 l 1
 117 1433 l 1
 117 1387 l 1
182 1152 m 2xf8
 182 1193 216 1227 257 1227 c 0
 298 1227 332 1193 332 1152 c 2
 332 149 l 1
 786 149 l 1
 826 151 861 115 861 75 c 0
 861 32 829 0 786 -0 c 2
 257 -1 l 2
 219 -1 182 34 182 74 c 2
 182 1152 l 2xf8
EndSplineSet
Validated: 33
EndChar

StartChar: M
Encoding: 77 77 44
Width: 1350
Flags: W
HStem: 1076 150<413 949> 1318 40<154 201> 1462 39<154 201>
VStem: 86 40<1387 1433> 183 150<293 936> 229 40<1386 1434> 1029 150<293 935>
LayerCount: 2
Fore
SplineSet
1104 1226 m 2xfa
 1149 1226 1180 1188 1179 1147 c 0
 1179 1146 1179 1145 1179 1144 c 2
 1180 76 l 2
 1180 6 1088 -24 1046 30 c 1
 681 493 l 1
 316 30 l 2
 272 -27 182 10 182 76 c 2
 183 1082 l 1
 183 1151 l 2
 183 1191 217 1226 258 1226 c 2
 1104 1226 l 2xfa
333 936 m 1
 332 293 l 1
 586 614 l 1
 333 936 l 1
777 614 m 1
 1030 293 l 1
 1029 935 l 1
 777 614 l 1
681 735 m 1
 949 1076 l 1
 413 1076 l 1
 681 735 l 1
229 1386 m 1xf6
 229 1434 l 1
 206 1410 l 1
 229 1386 l 1xf6
154 1358 m 1
 201 1358 l 1
 177 1381 l 1
 154 1358 l 1
201 1462 m 1
 154 1462 l 1
 177 1438 l 1
 201 1462 l 1
249 1503 m 2
 261 1503 269 1492 269 1483 c 2
 269 1338 l 2
 269 1325 262 1318 249 1318 c 2
 106 1318 l 2
 93 1318 86 1325 86 1338 c 2
 86 1481 l 2
 86 1494 92 1501 107 1501 c 2
 249 1503 l 2
126 1387 m 1
 149 1410 l 1
 126 1433 l 1
 126 1387 l 1
EndSplineSet
Validated: 33
EndChar

StartChar: N
Encoding: 78 78 45
Width: 1322
Flags: W
HStem: 1318 40<149 196> 1462 39<149 196>
VStem: 81 40<1387 1433> 182 149<304 1218.34> 224 40<1386 1434> 944 150<3.69075 914>
LayerCount: 2
Fore
SplineSet
224 1386 m 1xec
 224 1434 l 1
 201 1410 l 1
 224 1386 l 1xec
149 1358 m 1
 196 1358 l 1
 172 1381 l 1
 149 1358 l 1
196 1462 m 1
 149 1462 l 1
 172 1438 l 1
 196 1462 l 1
244 1503 m 2
 256 1503 264 1492 264 1483 c 2
 264 1338 l 2
 264 1325 257 1318 244 1318 c 2
 101 1318 l 2
 88 1318 81 1325 81 1338 c 2
 81 1481 l 2
 81 1494 88 1501 102 1501 c 2
 244 1503 l 2
121 1387 m 1
 144 1410 l 1
 121 1433 l 1
 121 1387 l 1
179 1150 m 2
 179 1191 213 1226 254 1226 c 0
 295 1226 329 1191 329 1151 c 2
 331 304 l 1
 957 1194 l 2
 998 1252 1093 1220 1093 1151 c 2
 1094 72 l 2
 1094 29 1062 -3 1019 -3 c 0
 978 -3 944 31 944 72 c 2
 943 914 l 1
 318 25 l 2
 277 -36 182 -0 182 68 c 2xf4
 179 1150 l 2
EndSplineSet
Validated: 33
EndChar

StartChar: O
Encoding: 79 79 46
Width: 1274
Flags: W
HStem: -5 151<332 944> 1076 150<331 947> 1318 40<158 205> 1462 39<158 205>
VStem: 90 40<1387 1433> 182 150<146 1076> 233 40<1386 1434> 944 150<152 1076>
LayerCount: 2
Fore
SplineSet
331 1076 m 1xfd
 332 146 l 1
 944 152 l 1
 947 1076 l 1
 331 1076 l 1xfd
181 1151 m 2
 181 1190 218 1226 256 1226 c 2
 1022 1226 l 2
 1061 1226 1097 1189 1097 1150 c 2
 1094 78 l 2
 1094 37 1059 3 1020 3 c 2
 258 -5 l 2
 217 -5 182 32 182 70 c 2
 181 1151 l 2
233 1386 m 1xfb
 233 1434 l 1
 210 1410 l 1
 233 1386 l 1xfb
158 1358 m 1
 205 1358 l 1
 181 1381 l 1
 158 1358 l 1
205 1462 m 1
 158 1462 l 1
 181 1438 l 1
 205 1462 l 1
253 1503 m 2
 265 1503 273 1492 273 1483 c 2
 273 1338 l 2
 273 1325 266 1318 253 1318 c 2
 110 1318 l 2
 97 1318 90 1325 90 1338 c 2
 90 1481 l 2
 90 1494 96 1501 111 1501 c 2
 253 1503 l 2
130 1387 m 1
 153 1410 l 1
 130 1433 l 1
 130 1387 l 1
EndSplineSet
Validated: 1
EndChar

StartChar: P
Encoding: 80 80 47
Width: 1263
Flags: W
HStem: 1076 150<400 945> 1318 40<157 204> 1462 39<157 204>
VStem: 89 40<1387 1433> 182 150<13.6908 912> 232 40<1386 1434> 944 150<307 1076>
LayerCount: 2
Fore
SplineSet
257 7 m 0xfa
 216 7 182 41 182 82 c 2
 182 1138 l 1
 181 1143 181 1147 181 1151 c 0
 181 1191 216 1226 256 1226 c 0
 511 1226 765 1226 1020 1226 c 0
 1060 1226 1095 1189 1095 1151 c 2
 1094 72 l 2
 1094 -2 997 -25 958 29 c 2
 332 912 l 1
 332 82 l 2
 332 41 298 7 257 7 c 0xfa
400 1076 m 1
 944 307 l 1
 945 1076 l 1
 400 1076 l 1
232 1386 m 1xf6
 232 1434 l 1
 209 1410 l 1
 232 1386 l 1xf6
157 1358 m 1
 204 1358 l 1
 180 1381 l 1
 157 1358 l 1
204 1462 m 1
 157 1462 l 1
 180 1438 l 1
 204 1462 l 1
252 1503 m 2
 264 1503 272 1492 272 1483 c 2
 272 1338 l 2
 272 1325 265 1318 252 1318 c 2
 109 1318 l 2
 96 1318 89 1325 89 1338 c 2
 89 1481 l 2
 89 1494 95 1501 110 1501 c 2
 252 1503 l 2
129 1387 m 1
 152 1410 l 1
 129 1433 l 1
 129 1387 l 1
EndSplineSet
Validated: 33
EndChar

StartChar: Q
Encoding: 81 81 48
Width: 1267
Flags: W
HStem: 1076 150<411 954> 1318 40<157 204> 1462 39<157 204>
VStem: 89 40<1387 1433> 179 151<290 933> 232 40<1386 1434>
LayerCount: 2
Fore
SplineSet
179 1150 m 2xf8
 179 1191 213 1226 254 1226 c 0
 539 1226 824 1226 1109 1226 c 0
 1171 1226 1206 1154 1168 1104 c 1
 764 594 l 1
 1166 44 l 2
 1206 -10 1157 -83 1094 -74 c 0
 1073 -71 1057 -61 1044 -44 c 2
 667 472 l 1
 316 28 l 1
 271 -24 182 7 182 75 c 2
 179 1077 l 1
 179 1150 l 2xf8
330 933 m 1
 331 290 l 1
 575 597 l 1
 330 933 l 1
672 719 m 1
 954 1076 l 1
 411 1076 l 1
 672 719 l 1
232 1386 m 1xf4
 232 1434 l 1
 209 1410 l 1
 232 1386 l 1xf4
157 1358 m 1
 204 1358 l 1
 180 1381 l 1
 157 1358 l 1
204 1462 m 1
 157 1462 l 1
 180 1438 l 1
 204 1462 l 1
252 1503 m 2
 264 1503 272 1492 272 1483 c 2
 272 1338 l 2
 272 1325 265 1318 252 1318 c 2
 109 1318 l 2
 96 1318 89 1325 89 1338 c 2
 89 1481 l 2
 89 1494 95 1501 110 1501 c 2
 252 1503 l 2
129 1387 m 1
 152 1410 l 1
 129 1433 l 1
 129 1387 l 1
EndSplineSet
Validated: 33
EndChar

StartChar: R
Encoding: 82 82 49
Width: 1269
Flags: W
HStem: -7 150<332 869> 1076 150<407 947> 1318 40<157 204> 1462 39<157 204>
VStem: 89 40<1387 1433> 181 150<143 922> 232 40<1386 1434> 945 149<298 1076>
LayerCount: 2
Fore
SplineSet
181 1151 m 2xfd
 181 1191 216 1226 256 1226 c 0
 511 1226 767 1226 1022 1226 c 0
 1060 1226 1097 1190 1097 1150 c 2
 1094 91 l 1
 1094 68 l 2
 1094 29 1062 -7 1019 -7 c 2
 257 -7 l 2
 218 -7 182 28 182 68 c 2
 181 1072 l 1
 181 1151 l 2xfd
331 922 m 1
 332 143 l 1
 869 143 l 1
 331 922 l 1
945 298 m 1
 947 1076 l 1
 407 1076 l 1
 945 298 l 1
232 1386 m 1xfb
 232 1434 l 1
 209 1410 l 1
 232 1386 l 1xfb
157 1358 m 1
 204 1358 l 1
 180 1381 l 1
 157 1358 l 1
204 1462 m 1
 157 1462 l 1
 180 1438 l 1
 204 1462 l 1
252 1503 m 2
 264 1503 272 1492 272 1483 c 2
 272 1338 l 2
 272 1325 265 1318 252 1318 c 2
 109 1318 l 2
 96 1318 89 1325 89 1338 c 2
 89 1481 l 2
 89 1494 95 1501 110 1501 c 2
 252 1503 l 2
129 1387 m 1
 152 1410 l 1
 129 1433 l 1
 129 1387 l 1
EndSplineSet
Validated: 1
EndChar

StartChar: S
Encoding: 83 83 50
Width: 1268
Flags: W
HStem: 1 149<402 874> 1073 150<403 876> 1318 40<153 200> 1462 39<153 200>
VStem: 85 40<1387 1433> 228 40<1386 1434>
LayerCount: 2
Fore
SplineSet
1022 1226 m 2
 1079 1226 1119 1156 1083 1107 c 2
 730 611 l 1
 1080 113 l 1
 1118 61 1072 -5 1018 -5 c 2
 256 1 l 2
 199 1 159 70 196 119 c 1
 546 611 l 1
 198 1105 l 1
 160 1154 202 1223 259 1223 c 2
 1022 1226 l 2
638 741 m 1
 876 1075 l 1
 403 1073 l 1
 638 741 l 1
637 481 m 1
 402 150 l 1
 874 146 l 1
 637 481 l 1
228 1386 m 1
 228 1434 l 1
 205 1410 l 1
 228 1386 l 1
153 1358 m 1
 200 1358 l 1
 176 1381 l 1
 153 1358 l 1
200 1462 m 1
 153 1462 l 1
 176 1438 l 1
 200 1462 l 1
248 1503 m 2
 260 1503 268 1492 268 1483 c 2
 268 1338 l 2
 268 1325 261 1318 248 1318 c 2
 105 1318 l 2
 92 1318 85 1325 85 1338 c 2
 85 1481 l 2
 85 1494 91 1501 106 1501 c 2
 248 1503 l 2
125 1387 m 1
 148 1410 l 1
 125 1433 l 1
 125 1387 l 1
EndSplineSet
Validated: 33
EndChar

StartChar: T
Encoding: 84 84 51
Width: 1267
Flags: W
HStem: 1076 150<395 937> 1318 40<154 201> 1462 39<154 201>
VStem: 86 40<1387 1433> 229 40<1386 1434>
LayerCount: 2
Fore
SplineSet
395 1076 m 1
 876 306 l 1
 937 1076 l 1
 395 1076 l 1
1018 1226 m 2
 1059 1226 1095 1185 1093 1145 c 2
 1008 68 l 1
 1002 0 907 -26 869 34 c 2
 196 1111 l 2
 164 1163 204 1226 260 1226 c 2
 1018 1226 l 2
229 1386 m 1
 229 1434 l 1
 206 1410 l 1
 229 1386 l 1
154 1358 m 1
 201 1358 l 1
 177 1381 l 1
 154 1358 l 1
201 1462 m 1
 154 1462 l 1
 177 1438 l 1
 201 1462 l 1
249 1503 m 2
 261 1503 269 1492 269 1483 c 2
 269 1338 l 2
 269 1325 262 1318 249 1318 c 2
 106 1318 l 2
 93 1318 86 1325 86 1338 c 2
 86 1481 l 2
 86 1494 92 1501 107 1501 c 2
 249 1503 l 2
126 1387 m 1
 149 1410 l 1
 126 1433 l 1
 126 1387 l 1
EndSplineSet
Validated: 33
EndChar

StartChar: U
Encoding: 85 85 52
Width: 1201
Flags: W
HStem: -2 150<332 858> 1318 40<147 194> 1462 39<147 194>
VStem: 79 40<1387 1433> 182 150<148 1218.36> 222 40<1386 1434> 858 150<148 1218.36>
LayerCount: 2
Fore
SplineSet
183 1151 m 2xfa
 183 1191 217 1226 258 1226 c 0
 298 1226 333 1191 333 1151 c 2
 332 148 l 1
 858 148 l 1
 857 1151 l 2
 857 1191 892 1226 932 1226 c 0
 971 1226 1007 1191 1007 1151 c 2
 1008 73 l 2
 1008 35 973 -2 933 -2 c 2
 257 -2 l 2
 219 -2 182 33 182 73 c 2
 183 1151 l 2xfa
222 1386 m 1xf6
 222 1434 l 1
 199 1410 l 1
 222 1386 l 1xf6
147 1358 m 1
 194 1358 l 1
 170 1381 l 1
 147 1358 l 1
194 1462 m 1
 147 1462 l 1
 170 1438 l 1
 194 1462 l 1
242 1503 m 2
 254 1503 262 1492 262 1483 c 2
 262 1338 l 2
 262 1325 255 1318 242 1318 c 2
 99 1318 l 2
 86 1318 79 1325 79 1338 c 2
 79 1481 l 2
 79 1494 85 1501 100 1501 c 2
 242 1503 l 2
119 1387 m 1
 142 1410 l 1
 119 1433 l 1
 119 1387 l 1
EndSplineSet
Validated: 1
EndChar

StartChar: V
Encoding: 86 86 53
Width: 1167
Flags: W
HStem: 1318 40<148 195> 1462 39<148 195>
VStem: 80 40<1387 1433> 182 151<312 1216.63> 223 40<1386 1434>
LayerCount: 2
Fore
SplineSet
187 1151 m 2xf0
 187 1191 222 1226 262 1226 c 0
 303 1226 337 1191 337 1150 c 2
 333 312 l 1
 959 1194 l 2
 980 1224 1028 1238 1063 1212 c 0
 1093 1191 1107 1144 1081 1107 c 2
 318 32 l 1
 296 -2 240 -12 206 20 c 0
 190 35 182 54 182 75 c 2
 187 1151 l 2xf0
223 1386 m 1xe8
 223 1434 l 1
 200 1410 l 1
 223 1386 l 1xe8
148 1358 m 1
 195 1358 l 1
 171 1381 l 1
 148 1358 l 1
195 1462 m 1
 148 1462 l 1
 171 1438 l 1
 195 1462 l 1
243 1503 m 2
 255 1503 263 1492 263 1483 c 2
 263 1338 l 2
 263 1325 256 1318 243 1318 c 2
 100 1318 l 2
 87 1318 80 1325 80 1338 c 2
 80 1481 l 2
 80 1494 86 1501 101 1501 c 2
 243 1503 l 2
120 1387 m 1
 143 1410 l 1
 120 1433 l 1
 120 1387 l 1
EndSplineSet
Validated: 33
EndChar

StartChar: W
Encoding: 87 87 54
Width: 1267
Flags: W
HStem: -5 151<402 875> 1318 40<148 195> 1462 39<148 195>
VStem: 80 40<1387 1433> 223 40<1386 1434>
LayerCount: 2
Fore
SplineSet
257 -5 m 2
 200 -5 160 64 196 113 c 2
 547 611 l 1
 197 1107 l 2
 158 1162 206 1236 271 1224 c 0
 291 1221 307 1211 319 1194 c 2
 639 741 l 1
 959 1194 l 2
 980 1224 1027 1237 1063 1212 c 0
 1093 1191 1107 1144 1081 1107 c 2
 731 611 l 1
 1080 117 l 1
 1118 68 1076 -1 1019 -1 c 2
 257 -5 l 2
639 481 m 1
 402 146 l 1
 875 148 l 1
 639 481 l 1
223 1386 m 1
 223 1434 l 1
 200 1410 l 1
 223 1386 l 1
148 1358 m 1
 195 1358 l 1
 171 1381 l 1
 148 1358 l 1
195 1462 m 1
 148 1462 l 1
 171 1438 l 1
 195 1462 l 1
243 1503 m 2
 255 1503 263 1492 263 1483 c 2
 263 1338 l 2
 263 1325 256 1318 243 1318 c 2
 100 1318 l 2
 87 1318 80 1325 80 1338 c 2
 80 1481 l 2
 80 1494 86 1501 101 1501 c 2
 243 1503 l 2
120 1387 m 1
 143 1410 l 1
 120 1433 l 1
 120 1387 l 1
EndSplineSet
Validated: 33
EndChar

StartChar: X
Encoding: 88 88 55
Width: 1229
Flags: W
HStem: 1318 40<149 196> 1462 39<149 196>
VStem: 81 40<1387 1433> 224 40<1386 1434> 943 151<308 915>
LayerCount: 2
Fore
SplineSet
636 482 m 1
 318 29 l 1
 298 -2 250 -15 214 11 c 0
 183 31 171 79 196 115 c 2
 544 613 l 1
 196 1107 l 2
 157 1162 205 1236 270 1224 c 0
 290 1221 307 1211 318 1194 c 2
 636 743 l 1
 952 1194 l 2
 993 1254 1088 1219 1088 1151 c 2
 1094 69 l 2
 1094 -2 997 -33 958 26 c 1
 636 482 l 1
728 613 m 1
 943 308 l 1
 939 915 l 1
 728 613 l 1
224 1386 m 1
 224 1434 l 1
 201 1410 l 1
 224 1386 l 1
149 1358 m 1
 196 1358 l 1
 172 1381 l 1
 149 1358 l 1
196 1462 m 1
 149 1462 l 1
 172 1438 l 1
 196 1462 l 1
244 1503 m 2
 256 1503 264 1492 264 1483 c 2
 264 1338 l 2
 264 1325 257 1318 244 1318 c 2
 101 1318 l 2
 88 1318 81 1325 81 1338 c 2
 81 1481 l 2
 81 1494 87 1501 102 1501 c 2
 244 1503 l 2
121 1387 m 1
 144 1410 l 1
 121 1433 l 1
 121 1387 l 1
EndSplineSet
Validated: 33
EndChar

StartChar: Y
Encoding: 89 89 56
Width: 1268
Flags: W
HStem: 1318 40<158 205> 1462 39<158 205>
VStem: 90 40<1387 1433> 233 40<1386 1434>
LayerCount: 2
Fore
SplineSet
130 1387 m 1
 153 1410 l 1
 130 1433 l 1
 130 1387 l 1
253 1503 m 2
 265 1503 273 1492 273 1483 c 2
 273 1338 l 2
 273 1325 266 1318 253 1318 c 2
 110 1318 l 2
 97 1318 90 1325 90 1338 c 2
 90 1481 l 2
 90 1494 96 1501 111 1501 c 2
 253 1503 l 2
205 1462 m 1
 158 1462 l 1
 181 1438 l 1
 205 1462 l 1
158 1358 m 1
 205 1358 l 1
 181 1381 l 1
 158 1358 l 1
233 1386 m 1
 233 1434 l 1
 210 1410 l 1
 233 1386 l 1
192 1111 m 1
 138 1194 266 1271 318 1191 c 1
 877 306 l 1
 946 1157 l 1
 952 1218 1036 1251 1078 1199 c 0
 1092 1183 1097 1165 1096 1144 c 2
 1008 70 l 2
 1002 2 907 -24 870 36 c 2
 192 1111 l 1
EndSplineSet
Validated: 33
EndChar

StartChar: Z
Encoding: 90 90 57
Width: 1271
Flags: W
HStem: -4 150<402 1086.53> 1076 150<190.468 873> 1318 40<154 201> 1462 39<154 201>
VStem: 86 40<1387 1433> 229 40<1386 1434>
LayerCount: 2
Fore
SplineSet
258 1076 m 2
 217 1076 183 1110 183 1151 c 0
 183 1191 219 1226 258 1226 c 2
 1018 1226 l 2
 1078 1226 1112 1157 1079 1107 c 1
 402 146 l 1
 1019 148 l 2
 1060 148 1094 114 1094 73 c 0
 1094 32 1060 -2 1019 -2 c 2
 257 -4 l 2
 198 -4 158 65 196 114 c 1
 873 1076 l 1
 258 1076 l 2
126 1387 m 1
 149 1410 l 1
 126 1433 l 1
 126 1387 l 1
249 1503 m 2
 261 1503 269 1492 269 1483 c 2
 269 1338 l 2
 269 1325 262 1318 249 1318 c 2
 106 1318 l 2
 93 1318 86 1325 86 1338 c 2
 86 1481 l 2
 86 1494 92 1501 107 1501 c 2
 249 1503 l 2
201 1462 m 1
 154 1462 l 1
 177 1438 l 1
 201 1462 l 1
154 1358 m 1
 201 1358 l 1
 177 1381 l 1
 154 1358 l 1
229 1386 m 1
 229 1434 l 1
 206 1410 l 1
 229 1386 l 1
EndSplineSet
Validated: 33
EndChar

StartChar: bracketleft
Encoding: 91 91 58
Width: 628
Flags: W
HStem: -320 121<347 538.466> 1277 122<347 538.461>
VStem: 191 156<-199 1277>
LayerCount: 2
Fore
SplineSet
510 -199 m 2
 536 -199 539 -232 539 -260 c 0
 539 -293 535 -320 510 -320 c 2
 254 -320 l 2
 212 -320 191 -293 191 -250 c 2
 191 1329 l 2
 191 1371 212 1399 254 1399 c 2
 510 1399 l 2
 536 1399 539 1365 539 1337 c 0
 539 1305 535 1277 510 1277 c 2
 347 1277 l 1
 347 -199 l 1
 510 -199 l 2
EndSplineSet
Validated: 1
EndChar

StartChar: backslash
Encoding: 92 92 59
Width: 791
Flags: W
LayerCount: 2
Fore
SplineSet
11 1440 m 0
 11 1457 26 1459 44 1462 c 0
 54 1462 69 1463 87 1463 c 0
 129 1463 165 1465 177 1436 c 2
 783 -223 l 2
 787 -234 789 -243 789 -250 c 0
 789 -276 744 -274 713 -274 c 0
 696 -274 682 -274 671 -272 c 0
 644 -272 630 -265 623 -246 c 2
 18 1413 l 2
 13 1424 11 1433 11 1440 c 0
EndSplineSet
Validated: 33
EndChar

StartChar: bracketright
Encoding: 93 93 60
Width: 628
Flags: W
HStem: -320 121<90.4408 282> 1277 122<90.4408 282>
VStem: 90 2<-259.485 -232.33 1337.51 1365.62> 282 156<-199 1277>
LayerCount: 2
Fore
SplineSet
374 1399 m 2
 416 1399 438 1371 438 1329 c 2
 438 -250 l 2
 438 -293 416 -320 374 -320 c 2
 119 -320 l 2
 94 -320 90 -292 90 -260 c 0
 90 -249 90 -239 92 -232 c 0
 92 -214 101 -199 119 -199 c 2
 282 -199 l 1
 282 1277 l 1
 119 1277 l 2
 94 1277 90 1307 90 1337 c 0
 90 1348 90 1358 92 1366 c 0
 92 1384 102 1399 119 1399 c 2
 374 1399 l 2
EndSplineSet
Validated: 1
EndChar

StartChar: asciicircum
Encoding: 94 94 61
Width: 1020
Flags: W
LayerCount: 2
Fore
SplineSet
138 568 m 0
 118 571 106 576 106 594 c 0
 107 601 110 611 115 624 c 2
 399 1272 l 1
 410 1304 460 1306 503 1306 c 0
 552 1306 593 1304 609 1272 c 1
 900 624 l 1
 907 605 916 587 902 576 c 0
 897 572 888 570 876 568 c 0
 865 568 849 567 830 567 c 0
 813 567 798 568 786 568 c 0
 756 573 744 578 732 598 c 1
 500 1149 l 1
 497 1146 l 1
 278 598 l 2
 269 577 252 573 226 568 c 0
 214 568 200 567 183 567 c 0
 164 567 148 568 138 568 c 0
EndSplineSet
Validated: 1
EndChar

StartChar: underscore
Encoding: 95 95 62
Width: 1020
Flags: W
HStem: -365 133<-5.79236 1023.07>
LayerCount: 2
Fore
SplineSet
991 -232 m 2
 1019 -232 1024 -264 1024 -298 c 0
 1024 -333 1020 -365 991 -365 c 2
 28 -365 l 2
 -1 -365 -7 -335 -7 -300 c 0
 -7 -265 -1 -232 28 -232 c 2
 991 -232 l 2
EndSplineSet
Validated: 1
EndChar

StartChar: grave
Encoding: 96 96 63
Width: 596
Flags: W
HStem: 1091 311
LayerCount: 2
Fore
SplineSet
455 1134 m 1
 480 1100 445 1091 408 1091 c 0
 395 1091 384 1092 375 1092 c 0
 349 1098 336 1104 322 1123 c 2
 141 1356 l 1
 110 1394 169 1402 208 1402 c 0
 262 1402 289 1396 311 1365 c 1
 455 1134 l 1
EndSplineSet
Validated: 33
EndChar

StartChar: a
Encoding: 97 97 64
Width: 1018
Flags: W
HStem: 2 144<268 751>
LayerCount: 2
Fore
SplineSet
201 884 m 2
 208 945 291 971 330 920 c 2
 956 119 l 2
 977 92 976 52 952 26 c 0
 937 10 920 3 899 2 c 1
 188 2 l 2
 150 2 111 40 117 82 c 1
 201 884 l 2
326 691 m 1
 268 146 l 1
 751 146 l 1
 326 691 l 1
EndSplineSet
Validated: 33
EndChar

StartChar: b
Encoding: 98 98 65
Width: 1264
Flags: W
HStem: -5 150<417 845> 805 150<429 773>
VStem: 182 150<277 689>
LayerCount: 2
Fore
SplineSet
256 -5 m 1
 216 -7 181 29 181 69 c 0
 181 73 181 77 182 82 c 1
 182 879 l 2
 182 921 216 955 257 955 c 0
 482 955 708 955 933 955 c 0
 994 955 1031 880 991 832 c 2
 715 502 l 1
 1074 121 l 2
 1119 73 1081 -5 1019 -5 c 0
 765 -5 510 -5 256 -5 c 1
429 805 m 1
 611 612 l 1
 773 805 l 1
 429 805 l 1
618 386 m 1
 417 145 l 1
 845 145 l 1
 618 386 l 1
515 496 m 1
 332 689 l 1
 332 277 l 1
 515 496 l 1
EndSplineSet
Validated: 33
EndChar

StartChar: c
Encoding: 99 99 66
Width: 908
Flags: W
HStem: -2 144<86.7656 607> 809 144<134.766 607>
VStem: 607 144<143 808>
LayerCount: 2
Fore
SplineSet
201 809 m 2
 161 809 129 842 129 881 c 0
 129 921 162 953 201 953 c 2
 679 952 l 2
 718 952 751 918 751 880 c 2
 751 71 l 2
 751 34 721 -1 679 -1 c 2
 153 -2 l 2
 114 -2 81 30 81 70 c 0
 81 109 113 142 153 142 c 2
 607 143 l 1
 607 808 l 1
 201 809 l 2
EndSplineSet
Validated: 1
EndChar

StartChar: d
Encoding: 100 100 67
Width: 1076
Flags: W
HStem: 808 144<292 796>
VStem: 148 144<258 808>
LayerCount: 2
Fore
SplineSet
148 880 m 2
 148 918 181 952 220 952 c 2
 959 953 l 2
 1022 953 1052 878 1012 832 c 1
 273 23 l 2
 247 -5 202 -8 171 19 c 0
 156 34 148 51 148 72 c 2
 148 880 l 2
292 808 m 1
 292 258 l 1
 796 809 l 1
 292 808 l 1
EndSplineSet
Validated: 33
EndChar

StartChar: e
Encoding: 101 101 68
Width: 1035
Flags: W
HStem: 0 144<292 714> 807 144<127.766 638>
VStem: 714 144<144 673>
LayerCount: 2
Fore
SplineSet
142 0 m 2
 82 0 51 70 86 117 c 1
 638 808 l 1
 194 807 l 2
 155 807 122 839 122 879 c 0
 122 918 154 951 194 951 c 2
 786 952 l 2
 825 952 858 916 858 880 c 0
 858 611 858 341 858 72 c 0
 858 34 823 0 786 0 c 2
 142 0 l 2
714 673 m 1
 292 144 l 1
 714 144 l 1
 714 673 l 1
EndSplineSet
Validated: 33
EndChar

StartChar: f
Encoding: 102 102 69
Width: 1183
Flags: W
HStem: -2 144<384 870> 930 20G<204 243>
VStem: 152 144<259 944.234> 870 144<142 685>
LayerCount: 2
Fore
SplineSet
384 142 m 1
 870 142 l 1
 870 685 l 1
 384 142 l 1
224 950 m 0
 262 950 296 917 296 878 c 2
 296 259 l 1
 888 922 l 2
 914 950 959 955 991 927 c 0
 1006 912 1014 895 1014 874 c 2
 1014 70 l 2
 1014 33 980 -2 942 -2 c 2
 223 -2 l 2
 184 -2 154 30 152 66 c 1
 152 337 152 607 152 878 c 0
 152 918 184 950 224 950 c 0
EndSplineSet
Validated: 33
EndChar

StartChar: g
Encoding: 103 103 70
Width: 906
Flags: W
HStem: 808 144<49.625 578>
VStem: 578 144<1.76562 810>
LayerCount: 2
Fore
SplineSet
116 808 m 2
 76 808 44 840 44 880 c 0
 42 918 77 952 115 952 c 2
 649 954 l 2
 688 954 722 918 722 882 c 2
 722 68 l 2
 722 29 688 -4 650 -4 c 0
 610 -4 578 28 578 68 c 2
 578 810 l 1
 116 808 l 2
EndSplineSet
Validated: 33
EndChar

StartChar: h
Encoding: 104 104 71
Width: 1369
Flags: W
VStem: 158 144<234 717> 1055 144<236 720>
LayerCount: 2
Fore
SplineSet
1199 74 m 2
 1199 14 1124 -20 1079 21 c 2
 678 380 l 1
 278 19 l 2
 252 -5 209 -7 181 19 c 0
 165 34 158 51 158 72 c 2
 158 878 l 2
 158 941 231 970 278 932 c 1
 678 573 l 1
 1079 935 l 1
 1126 979 1199 939 1199 882 c 2
 1199 74 l 2
786 477 m 1
 1055 236 l 1
 1055 720 l 1
 786 477 l 1
570 476 m 1
 302 717 l 1
 302 234 l 1
 570 476 l 1
EndSplineSet
Validated: 33
EndChar

StartChar: i
Encoding: 105 105 72
Width: 680
Flags: W
VStem: 81 473
LayerCount: 2
Fore
SplineSet
81 904 m 0
 93 934 129 960 174 944 c 0
 193 936 206 923 214 905 c 2
 554 103 l 1
 579 46 525 -16 461 8 c 0
 443 16 429 29 422 47 c 2
 81 849 l 2
 73 867 73 885 81 904 c 0
EndSplineSet
Validated: 33
EndChar

StartChar: j
Encoding: 106 106 73
Width: 805
Flags: W
HStem: 2 144<80.7812 547>
LayerCount: 2
Fore
SplineSet
75 74 m 0
 75 113 107 146 147 146 c 2
 547 147 l 1
 87 839 l 2
 52 893 99 962 161 949 c 0
 181 945 196 935 207 919 c 2
 741 116 l 1
 775 68 736 4 682 4 c 2
 148 2 l 2
 108 2 75 35 75 74 c 0
EndSplineSet
Validated: 33
EndChar

StartChar: k
Encoding: 107 107 74
Width: 931
Flags: W
HStem: 808 144<137.625 605>
LayerCount: 2
Fore
SplineSet
204 808 m 2
 164 808 132 840 132 880 c 0
 130 918 165 952 203 952 c 2
 739 953 l 2
 796 953 830 890 799 841 c 1
 263 34 l 2
 245 6 198 -10 164 14 c 0
 134 33 119 78 144 114 c 2
 605 809 l 1
 204 808 l 2
EndSplineSet
Validated: 33
EndChar

StartChar: l
Encoding: 108 108 75
Width: 865
Flags: MW
LayerCount: 2
Fore
SplineSet
234 922 m 0
 275 922 309 888 309 847 c 2
 311 151 l 1
 676 150 l 2
 717 150 751 116 750 75 c 0
 750 34 716 -0 675 0 c 2
 236 2 l 2
 199 2 161 34 161 77 c 2
 159 847 l 2
 159 888 193 922 234 922 c 0
EndSplineSet
Validated: 33
EndChar

StartChar: m
Encoding: 109 109 76
Width: 1462
Flags: W
HStem: 807 145<440 1005>
VStem: 163 144<226 731> 1132 144<225 726>
LayerCount: 2
Fore
SplineSet
163 880 m 0
 163 919 197 952 235 952 c 0
 239 952 243 952 247 951 c 1
 1195 952 l 2
 1241 952 1276 925 1276 880 c 2
 1276 70 l 2
 1276 10 1204 -23 1158 15 c 2
 721 383 l 1
 281 17 l 2
 253 -6 214 -6 186 19 c 0
 171 34 163 51 163 72 c 0
 163 341 163 611 163 880 c 0
721 571 m 1
 1005 807 l 1
 440 807 l 1
 721 571 l 1
833 477 m 1
 1132 225 l 1
 1132 726 l 1
 833 477 l 1
609 477 m 1
 307 731 l 1
 307 226 l 1
 609 477 l 1
EndSplineSet
Validated: 33
EndChar

StartChar: n
Encoding: 110 110 77
Width: 1105
Flags: W
HStem: 2 21G<839 878> 2 21G<839 878> 932 20G<221 260>
VStem: 168 144<288 946.234> 786 144<7.76562 670>
LayerCount: 2
Fore
SplineSet
168 880 m 2xb8
 168 919 202 952 240 952 c 0
 280 952 312 920 312 880 c 2
 312 288 l 1
 801 926 l 1
 826 957 874 963 907 936 c 0
 923 921 930 903 930 882 c 2
 930 74 l 2
 930 34 898 2 858 2 c 0
 820 2 786 35 786 74 c 2
 786 670 l 1
 298 32 l 2
 256 -23 168 13 168 76 c 2
 168 880 l 2xb8
EndSplineSet
Validated: 33
EndChar

StartChar: o
Encoding: 111 111 78
Width: 1080
Flags: W
HStem: 0 144<312 774> 808 144<312 774>
VStem: 168 144<144 808> 774 144<145 808>
LayerCount: 2
Fore
SplineSet
312 808 m 1
 312 144 l 1
 774 145 l 1
 774 808 l 1
 312 808 l 1
168 880 m 2
 168 918 203 952 240 952 c 2
 846 952 l 2
 884 952 918 917 918 880 c 2
 918 73 l 2
 918 32 887 1 846 1 c 2
 240 0 l 2
 201 0 168 36 168 72 c 2
 168 880 l 2
EndSplineSet
Validated: 1
EndChar

StartChar: p
Encoding: 112 112 79
Width: 1146
Flags: W
HStem: 1 21G<220.5 259.5> 808 144<391 831>
VStem: 168 144<6.90625 678> 832 144<274 810>
LayerCount: 2
Fore
SplineSet
240 1 m 0
 201 1 168 35 168 73 c 2
 168 880 l 2
 168 919 200 952 240 952 c 2
 279 952 l 1
 903 954 l 2
 941 954 975 918 975 882 c 2
 976 73 l 2
 976 7 890 -23 848 27 c 2
 312 678 l 1
 312 73 l 2
 312 35 279 1 240 1 c 0
391 808 m 1
 832 274 l 1
 831 810 l 1
 391 808 l 1
EndSplineSet
Validated: 33
EndChar

StartChar: q
Encoding: 113 113 80
Width: 1152
Flags: W
HStem: 805 143<381 838>
VStem: 159 144<249 677>
LayerCount: 2
Fore
SplineSet
230 -2 m 0
 191 -0 159 31 159 70 c 2
 159 875 l 2
 159 915 192 948 231 948 c 2
 271 948 l 1
 1007 953 l 1
 1069 956 1103 875 1060 832 c 1
 698 454 l 1
 1063 48 l 1
 1130 -19 1017 -117 957 -48 c 1
 598 349 l 1
 283 20 l 2
 269 5 251 -2 230 -2 c 0
381 805 m 1
 601 561 l 1
 838 808 l 1
 381 805 l 1
502 457 m 1
 303 677 l 1
 303 249 l 1
 502 457 l 1
EndSplineSet
Validated: 33
EndChar

StartChar: r
Encoding: 114 114 81
Width: 1223
Flags: W
HStem: 3 143<314 800> 809 144<400 886>
VStem: 170 144<143 690> 886 144<266 809>
LayerCount: 2
Fore
SplineSet
242 -1 m 2
 203 -1 170 34 170 71 c 2
 170 880 l 2
 170 919 203 953 242 953 c 0
 481 953 719 953 958 953 c 0
 997 953 1030 918 1030 881 c 2
 1030 75 l 2
 1030 36 998 3 958 3 c 2
 242 -1 l 2
400 809 m 1
 886 266 l 1
 886 809 l 1
 400 809 l 1
800 146 m 1
 314 690 l 1
 314 143 l 1
 800 146 l 1
EndSplineSet
Validated: 1
EndChar

StartChar: s
Encoding: 115 115 82
Width: 1069
Flags: W
HStem: 0 144<312 730> 807 144<312 730>
LayerCount: 2
Fore
SplineSet
895 953 m 2
 957 953 989 876 948 832 c 2
 619 476 l 1
 948 121 l 2
 973 94 971 50 948 23 c 0
 936 11 918 0 895 0 c 2
 147 0 l 2
 85 0 52 76 94 121 c 2
 423 476 l 1
 94 830 l 2
 50 877 91 951 147 951 c 2
 895 953 l 2
521 582 m 1
 730 809 l 1
 312 807 l 1
 521 582 l 1
521 370 m 1
 312 144 l 1
 730 144 l 1
 521 370 l 1
EndSplineSet
Validated: 33
EndChar

StartChar: t
Encoding: 116 116 83
Width: 1008
Flags: W
HStem: 805 150<247 688>
LayerCount: 2
Fore
SplineSet
247 805 m 1
 634 277 l 1
 688 805 l 1
 247 805 l 1
99 955 m 2
 772 955 l 2
 814 955 850 914 846 872 c 2
 763 68 l 2
 757 3 668 -22 628 32 c 2
 39 836 l 1
 1 886 41 955 99 955 c 2
EndSplineSet
Validated: 33
EndChar

StartChar: u
Encoding: 117 117 84
Width: 1076
Flags: W
HStem: 0 145<327 737> 932 20G<236 274 790 828>
VStem: 183 144<145 946.234> 737 144<146 948.234>
LayerCount: 2
Fore
SplineSet
183 880 m 2
 183 919 217 952 255 952 c 0
 293 952 327 919 327 880 c 2
 327 145 l 1
 737 146 l 1
 737 882 l 2
 737 921 771 954 809 954 c 0
 847 954 881 921 881 882 c 2
 881 74 l 2
 881 41 869 20 846 13 c 0
 822 6 810 3 809 2 c 2
 255 0 l 2
 219 0 183 34 183 72 c 2
 183 880 l 2
EndSplineSet
Validated: 1
EndChar

StartChar: v
Encoding: 118 118 85
Width: 959
Flags: W
LayerCount: 2
Fore
SplineSet
76 875 m 2
 70 934 140 979 192 938 c 0
 208 925 217 909 219 889 c 2
 284 264 l 1
 773 924 l 2
 811 975 893 952 902 892 c 0
 905 872 901 854 889 839 c 2
 290 29 l 2
 268 -0 223 -11 189 15 c 0
 172 27 163 44 160 65 c 2
 76 875 l 2
EndSplineSet
Validated: 33
EndChar

StartChar: w
Encoding: 119 119 86
Width: 1207
Flags: W
HStem: 4 144<410 816> 932 20G<125 155>
LayerCount: 2
Fore
SplineSet
76 878 m 0
 74 919 105 950 145 952 c 0
 165 952 182 946 197 932 c 2
 609 541 l 1
 1015 933 l 2
 1029 947 1046 954 1066 953 c 0
 1106 953 1137 920 1137 880 c 0
 1136 860 1129 843 1115 830 c 2
 714 442 l 1
 1047 127 l 2
 1062 113 1069 95 1069 74 c 0
 1067 36 1037 1 997 3 c 1
 232 4 l 2
 179 4 146 59 168 108 c 0
 173 117 178 123 182 128 c 2
 506 441 l 1
 98 828 l 2
 83 841 76 858 76 878 c 0
610 342 m 1
 410 148 l 1
 816 147 l 1
 610 342 l 1
EndSplineSet
Validated: 33
EndChar

StartChar: x
Encoding: 120 120 87
Width: 1262
Flags: W
VStem: 947 144<239 722>
LayerCount: 2
Fore
SplineSet
562 397 m 1
 194 86 l 1
 123 25 31 135 101 196 c 1
 456 496 l 1
 98 824 l 2
 84 837 76 854 76 874 c 0
 73 937 150 973 196 930 c 2
 566 589 l 1
 973 932 l 1
 999 956 1041 954 1068 930 c 0
 1083 915 1091 898 1091 877 c 2
 1091 75 l 2
 1091 13 1015 -20 970 22 c 2
 562 397 l 1
673 491 m 1
 947 239 l 1
 947 722 l 1
 673 491 l 1
EndSplineSet
Validated: 33
EndChar

StartChar: y
Encoding: 121 121 88
Width: 1007
Flags: W
LayerCount: 2
Fore
SplineSet
36 841 m 1
 -21 917 100 1001 152 925 c 1
 636 256 l 1
 733 890 l 2
 742 949 824 973 862 922 c 0
 874 905 878 888 875 868 c 2
 752 60 l 1
 745 -1 659 -22 623 29 c 2
 36 841 l 1
EndSplineSet
Validated: 33
EndChar

StartChar: z
Encoding: 122 122 89
Width: 809
Flags: W
HStem: 2 143<302 706.375> 808 144<112.625 516>
VStem: 107 605
LayerCount: 2
Fore
SplineSet
179 808 m 2
 139 808 107 840 107 880 c 0
 105 918 140 952 178 952 c 2
 640 953 l 2
 695 953 728 895 703 845 c 1
 302 145 l 1
 641 144 l 2
 679 144 714 110 712 72 c 0
 712 32 680 0 640 0 c 2
 178 2 l 2
 125 2 88 59 116 110 c 2
 516 809 l 1
 179 808 l 2
EndSplineSet
Validated: 33
EndChar

StartChar: braceleft
Encoding: 123 123 90
Width: 644
Flags: W
HStem: -322 128<440.929 578.875> 504 122<86.6394 207.721> 1280 128<441.327 578.906>
VStem: 264 151<-149.469 448.777 686.994 1265.63>
LayerCount: 2
Fore
SplineSet
544 -195 m 2
 576 -195 580 -223 580 -257 c 0
 580 -286 575 -317 549 -317 c 0
 537 -320 526 -321 518 -322 c 1
 485 -322 l 2
 283 -322 264 -169 264 40 c 2
 264 246 l 2
 264 383 237 490 118 504 c 0
 91 509 86 533 86 565 c 0
 86 576 86 585 88 592 c 0
 88 614 99 623 117 626 c 0
 231 638 264 744 264 885 c 2
 264 1046 l 2
 264 1253 285 1408 485 1408 c 0
 513 1408 523 1408 547 1403 c 1
 575 1403 580 1373 580 1343 c 0
 580 1311 576 1281 546 1281 c 2
 505 1280 l 1
 440 1280 428 1233 420 1171 c 0
 417 1142 415 1098 415 1039 c 2
 415 893 l 2
 415 722 378 595 238 565 c 1
 379 538 415 406 415 237 c 2
 415 47 l 2
 415 -44 413 -98 436 -152 c 0
 448 -180 466 -194 502 -194 c 2
 544 -195 l 2
EndSplineSet
Validated: 33
EndChar

StartChar: bar
Encoding: 124 124 91
Width: 943
Flags: W
VStem: 394 155<-364.023 1433.05>
LayerCount: 2
Fore
SplineSet
471 1434 m 0
 505 1434 549 1434 549 1403 c 2
 549 -333 l 2
 549 -365 506 -365 471 -365 c 0
 437 -365 394 -365 394 -333 c 2
 394 1403 l 2
 394 1434 438 1434 471 1434 c 0
EndSplineSet
Validated: 1
EndChar

StartChar: braceright
Encoding: 125 125 92
Width: 644
Flags: W
HStem: -322 127<118.5 258.673> 507 120<496.886 612.551> 1281 127<118.221 258.872>
VStem: 284 152<-179.2 438.01 673.677 1235.47>
LayerCount: 2
Fore
SplineSet
582 627 m 0
 610 627 613 596 613 567 c 256
 613 535 611 510 583 507 c 0
 492 498 455 411 443 322 c 0
 438 290 436 249 436 201 c 2
 436 40 l 2
 436 -166 415 -322 215 -322 c 0
 186 -322 176 -321 150 -317 c 0
 124 -317 117 -285 117 -257 c 0
 117 -228 124 -195 151 -195 c 2
 194 -194 l 1
 258 -194 272 -147 279 -85 c 0
 282 -56 284 -12 284 47 c 2
 284 193 l 2
 284 334 306 447 376 519 c 0
 398 543 427 559 461 566 c 1
 324 593 284 683 284 849 c 2
 284 1039 l 2
 284 1131 286 1184 264 1238 c 0
 251 1266 233 1280 197 1280 c 2
 157 1281 l 2
 122 1281 117 1307 117 1343 c 0
 117 1374 123 1403 153 1403 c 1
 176 1408 188 1408 215 1408 c 0
 416 1408 436 1253 436 1046 c 2
 436 840 l 2
 436 705 466 642 582 627 c 0
EndSplineSet
Validated: 33
EndChar

StartChar: asciitilde
Encoding: 126 126 93
Width: 1020
Flags: W
HStem: 763 137<607.672 798.757> 998 135<225.389 413.719>
VStem: 61 131<795.469 967.467> 831 131<932.135 1101.59>
LayerCount: 2
Fore
SplineSet
896 1102 m 0
 928 1102 966 1102 962 1070 c 1
 962 1037 l 1
 958 907 895 817 799 780 c 0
 768 769 737 763 705 763 c 256
 556 763 506 849 438 929 c 0
 409 963 376 998 316 998 c 0
 224 998 192 917 192 824 c 0
 192 796 159 795 126 795 c 0
 95 795 61 795 61 825 c 2
 61 852 l 2
 61 1022 150 1133 318 1133 c 0
 465 1133 518 1049 584 969 c 0
 613 934 646 900 707 900 c 0
 801 900 831 980 831 1075 c 0
 831 1101 865 1102 896 1102 c 0
EndSplineSet
Validated: 33
EndChar

StartChar: space
Encoding: 32 32 94
Width: 725
VWidth: 0
Flags: W
HStem: 511 30<347 374> 610 30<347 374>
VStem: 295 30<562 589> 396 30<562 589>
LayerCount: 2
Fore
SplineSet
310 511 m 2
 301 511 295 518 295 526 c 2
 295 625 l 2
 295 634 304 640 310 640 c 2
 411 640 l 2
 420 640 426 631 426 625 c 2
 426 526 l 2
 426 517 419 511 411 511 c 2
 310 511 l 2
374 541 m 1
 361 554 l 1
 347 541 l 1
 374 541 l 1
325 562 m 1
 339 575 l 1
 325 589 l 1
 325 562 l 1
396 562 m 1
 396 589 l 1
 382 575 l 1
 396 562 l 1
374 610 m 1
 347 610 l 1
 361 597 l 1
 374 610 l 1
EndSplineSet
Validated: 1
EndChar
